<svg width="270" height="327" viewBox="0 0 270 327" fill="none" xmlns="http://www.w3.org/2000/svg">
<rect width="270" height="327" fill="#272727"/>
<g id="undraw_code_review_l1q9 1">
<g id="Vector" filter="url(#filter0_d)">
<path d="M137.924 254.37C87.352 250.105 27.0422 206.684 30.1126 161.976C33.1831 117.267 91.5938 75.6471 142.166 79.9117C192.738 84.1762 221.85 167.729 218.779 212.438C215.709 257.146 188.497 258.634 137.924 254.37Z" fill="#272727" fill-opacity="0.8"/>
<path d="M137.924 254.37C87.352 250.105 27.0422 206.684 30.1126 161.976C33.1831 117.267 91.5938 75.6471 142.166 79.9117C192.738 84.1762 221.85 167.729 218.779 212.438C215.709 257.146 188.497 258.634 137.924 254.37Z" fill="url(#paint0_linear)"/>
</g>
<g id="Vector_2" filter="url(#filter1_d)">
<path d="M142.5 266.472C178.245 266.472 207.222 263.002 207.222 258.721C207.222 254.441 178.245 250.971 142.5 250.971C106.755 250.971 77.7778 254.441 77.7778 258.721C77.7778 263.002 106.755 266.472 142.5 266.472Z" fill="#3F3D56"/>
</g>
<g id="Vector_3" opacity="0.1" filter="url(#filter2_d)">
<path d="M144.167 260.567C174.389 260.567 198.889 258.418 198.889 255.769C198.889 253.119 174.389 250.971 144.167 250.971C113.944 250.971 89.4445 253.119 89.4445 255.769C89.4445 258.418 113.944 260.567 144.167 260.567Z" fill="black"/>
</g>
<g id="Vector_4" filter="url(#filter3_d)">
<path d="M194.77 100.27H90.3255V250.852H194.77V100.27Z" fill="#3F3D56"/>
</g>
<g id="topcode" filter="url(#filter4_d)">
<path id="Vector_5" d="M144.175 123.864H120.454C120.416 123.864 120.379 123.849 120.344 123.821C120.309 123.792 120.277 123.75 120.25 123.697C120.223 123.643 120.202 123.58 120.187 123.511C120.173 123.441 120.165 123.367 120.165 123.291C120.165 123.216 120.173 123.141 120.187 123.072C120.202 123.002 120.223 122.939 120.25 122.886C120.277 122.833 120.309 122.79 120.344 122.762C120.379 122.733 120.416 122.718 120.454 122.719H144.175C144.251 122.719 144.324 122.779 144.378 122.887C144.432 122.994 144.462 123.14 144.462 123.291C144.462 123.443 144.432 123.588 144.378 123.696C144.324 123.803 144.251 123.864 144.175 123.864V123.864Z" fill="white"/>
<path id="Vector_6" d="M170.142 130.163H132.833C132.756 130.163 132.683 130.103 132.629 129.996C132.575 129.888 132.545 129.742 132.545 129.591C132.545 129.439 132.575 129.293 132.629 129.186C132.683 129.078 132.756 129.018 132.833 129.018H170.142C170.179 129.018 170.217 129.033 170.252 129.061C170.287 129.09 170.318 129.132 170.345 129.186C170.372 129.239 170.393 129.302 170.408 129.371C170.422 129.441 170.429 129.515 170.429 129.591C170.429 129.666 170.422 129.74 170.408 129.81C170.393 129.879 170.372 129.942 170.345 129.996C170.318 130.049 170.287 130.091 170.252 130.12C170.217 130.148 170.179 130.163 170.142 130.163V130.163Z" fill="white"/>
<path id="Vector_7" d="M144.29 136.463H120.569C120.493 136.463 120.42 136.402 120.366 136.295C120.312 136.188 120.281 136.042 120.281 135.89C120.281 135.738 120.312 135.592 120.366 135.485C120.42 135.378 120.493 135.317 120.569 135.317H144.29C144.367 135.317 144.44 135.378 144.494 135.485C144.548 135.592 144.578 135.738 144.578 135.89C144.578 136.042 144.548 136.188 144.494 136.295C144.44 136.402 144.367 136.463 144.29 136.463V136.463Z" fill="white"/>
<path id="Vector_8" d="M170.142 136.577H146.421C146.344 136.577 146.271 136.517 146.217 136.409C146.163 136.302 146.133 136.156 146.133 136.005C146.133 135.853 146.163 135.707 146.217 135.6C146.271 135.492 146.344 135.432 146.421 135.432H170.142C170.218 135.432 170.291 135.492 170.345 135.6C170.399 135.707 170.429 135.853 170.429 136.005C170.429 136.156 170.399 136.302 170.345 136.409C170.291 136.517 170.218 136.577 170.142 136.577V136.577Z" fill="white"/>
<path id="Vector_9" d="M144.348 142.762H120.627C120.55 142.762 120.477 142.702 120.423 142.594C120.369 142.487 120.339 142.341 120.339 142.189C120.339 142.037 120.369 141.892 120.423 141.784C120.477 141.677 120.55 141.617 120.627 141.617H144.348C144.424 141.617 144.497 141.677 144.551 141.784C144.605 141.892 144.636 142.037 144.636 142.189C144.636 142.341 144.605 142.487 144.551 142.594C144.497 142.702 144.424 142.762 144.348 142.762V142.762Z" fill="white"/>
<path id="Vector_10" d="M144.405 149.061H120.684C120.608 149.061 120.535 149.001 120.481 148.894C120.427 148.786 120.396 148.641 120.396 148.489C120.396 148.337 120.427 148.191 120.481 148.084C120.535 147.976 120.608 147.916 120.684 147.916H144.405C144.482 147.916 144.555 147.976 144.609 148.084C144.663 148.191 144.693 148.337 144.693 148.489C144.693 148.641 144.663 148.786 144.609 148.894C144.555 149.001 144.482 149.061 144.405 149.061V149.061Z" fill="white"/>
<path id="Vector_11" d="M155.172 123.978H148.378C148.302 123.978 148.228 123.918 148.174 123.811C148.12 123.703 148.09 123.558 148.09 123.406C148.09 123.254 148.12 123.108 148.174 123.001C148.228 122.893 148.302 122.833 148.378 122.833H155.172C155.248 122.833 155.322 122.893 155.376 123.001C155.43 123.108 155.46 123.254 155.46 123.406C155.46 123.558 155.43 123.703 155.376 123.811C155.322 123.918 155.248 123.978 155.172 123.978V123.978Z" fill="white"/>
<path id="Vector_12" d="M155.172 142.762H148.378C148.302 142.762 148.228 142.702 148.174 142.594C148.12 142.487 148.09 142.341 148.09 142.189C148.09 142.037 148.12 141.892 148.174 141.784C148.228 141.677 148.302 141.617 148.378 141.617H155.172C155.248 141.617 155.322 141.677 155.376 141.784C155.43 141.892 155.46 142.037 155.46 142.189C155.46 142.341 155.43 142.487 155.376 142.594C155.322 142.702 155.248 142.762 155.172 142.762V142.762Z" fill="white"/>
<path id="Vector_13" d="M155.172 148.947H148.378C148.34 148.947 148.303 148.932 148.268 148.904C148.233 148.875 148.201 148.833 148.174 148.78C148.147 148.726 148.126 148.663 148.112 148.594C148.097 148.524 148.09 148.45 148.09 148.374C148.09 148.299 148.097 148.224 148.112 148.155C148.126 148.085 148.147 148.022 148.174 147.969C148.201 147.916 148.233 147.874 148.268 147.845C148.303 147.816 148.34 147.801 148.378 147.802H155.172C155.21 147.801 155.247 147.816 155.282 147.845C155.317 147.874 155.349 147.916 155.376 147.969C155.403 148.022 155.424 148.085 155.438 148.155C155.453 148.224 155.46 148.299 155.46 148.374C155.46 148.45 155.453 148.524 155.438 148.594C155.424 148.663 155.403 148.726 155.376 148.78C155.349 148.833 155.317 148.875 155.282 148.904C155.247 148.932 155.21 148.947 155.172 148.947V148.947Z" fill="white"/>
<path id="Vector_14" d="M166.572 148.947H159.778C159.702 148.947 159.629 148.886 159.575 148.779C159.521 148.671 159.491 148.526 159.491 148.374C159.491 148.223 159.521 148.077 159.575 147.97C159.629 147.862 159.702 147.802 159.778 147.802H166.572C166.61 147.801 166.647 147.816 166.682 147.845C166.717 147.874 166.749 147.916 166.776 147.969C166.803 148.022 166.824 148.085 166.838 148.155C166.853 148.224 166.86 148.299 166.86 148.374C166.86 148.45 166.853 148.524 166.838 148.594C166.824 148.663 166.803 148.726 166.776 148.78C166.749 148.833 166.717 148.875 166.682 148.904C166.647 148.932 166.61 148.947 166.572 148.947V148.947Z" fill="white"/>
<path id="Vector_15" d="M127.19 130.163H120.396C120.32 130.163 120.247 130.103 120.193 129.996C120.139 129.888 120.109 129.742 120.109 129.591C120.109 129.439 120.139 129.293 120.193 129.186C120.247 129.078 120.32 129.018 120.396 129.018H127.19C127.267 129.018 127.34 129.078 127.394 129.186C127.448 129.293 127.478 129.439 127.478 129.591C127.478 129.742 127.448 129.888 127.394 129.996C127.34 130.103 127.267 130.163 127.19 130.163V130.163Z" fill="white"/>
</g>
<g id="bottomcode" filter="url(#filter5_d)">
<path id="Vector_16" d="M144.424 220.441H120.703C120.626 220.441 120.553 220.381 120.499 220.273C120.445 220.166 120.415 220.02 120.415 219.869C120.415 219.717 120.445 219.571 120.499 219.464C120.553 219.356 120.626 219.296 120.703 219.296H144.424C144.5 219.296 144.574 219.356 144.628 219.464C144.681 219.571 144.712 219.717 144.712 219.869C144.712 220.02 144.681 220.166 144.628 220.273C144.574 220.381 144.5 220.441 144.424 220.441Z" fill="white"/>
<path id="Vector_17" d="M144.309 233.04H120.588C120.511 233.04 120.438 232.98 120.384 232.872C120.33 232.765 120.3 232.619 120.3 232.467C120.3 232.316 120.33 232.17 120.384 232.062C120.438 231.955 120.511 231.895 120.588 231.895H144.309C144.385 231.895 144.458 231.955 144.512 232.062C144.566 232.17 144.597 232.316 144.597 232.467C144.597 232.619 144.566 232.765 144.512 232.872C144.458 232.98 144.385 233.04 144.309 233.04Z" fill="white"/>
<path id="Vector_18" d="M144.366 239.339H120.645C120.607 239.34 120.57 239.325 120.535 239.296C120.5 239.268 120.468 239.225 120.441 239.172C120.415 239.119 120.393 239.056 120.379 238.986C120.364 238.917 120.357 238.842 120.357 238.767C120.357 238.691 120.364 238.617 120.379 238.547C120.393 238.478 120.415 238.415 120.441 238.361C120.468 238.308 120.5 238.266 120.535 238.237C120.57 238.209 120.607 238.194 120.645 238.194H144.366C144.404 238.194 144.442 238.209 144.477 238.237C144.512 238.266 144.544 238.308 144.57 238.361C144.597 238.415 144.618 238.478 144.633 238.547C144.647 238.617 144.655 238.691 144.655 238.767C144.655 238.842 144.647 238.917 144.633 238.986C144.618 239.056 144.597 239.119 144.57 239.172C144.544 239.225 144.512 239.268 144.477 239.296C144.442 239.325 144.404 239.34 144.366 239.339V239.339Z" fill="white"/>
<path id="Vector_19" d="M154.5 233.155H147.706C147.629 233.155 147.556 233.094 147.502 232.987C147.448 232.879 147.418 232.734 147.418 232.582C147.418 232.43 147.448 232.284 147.502 232.177C147.556 232.07 147.629 232.009 147.706 232.009H154.5C154.576 232.009 154.649 232.07 154.703 232.177C154.757 232.284 154.787 232.43 154.787 232.582C154.787 232.734 154.757 232.879 154.703 232.987C154.649 233.094 154.576 233.155 154.5 233.155Z" fill="white"/>
<path id="Vector_20" d="M154.5 239.339H147.706C147.629 239.339 147.556 239.279 147.502 239.172C147.448 239.064 147.418 238.919 147.418 238.767C147.418 238.615 147.448 238.469 147.502 238.362C147.556 238.254 147.629 238.194 147.706 238.194H154.5C154.576 238.194 154.649 238.254 154.703 238.362C154.757 238.469 154.787 238.615 154.787 238.767C154.787 238.919 154.757 239.064 154.703 239.172C154.649 239.279 154.576 239.339 154.5 239.339V239.339Z" fill="white"/>
<path id="Vector_21" d="M165.9 233.155H159.106C159.029 233.155 158.956 233.094 158.902 232.987C158.848 232.879 158.818 232.734 158.818 232.582C158.818 232.43 158.848 232.284 158.902 232.177C158.956 232.07 159.029 232.009 159.106 232.009H165.9C165.976 232.009 166.049 232.07 166.103 232.177C166.157 232.284 166.187 232.43 166.187 232.582C166.187 232.734 166.157 232.879 166.103 232.987C166.049 233.094 165.976 233.155 165.9 233.155V233.155Z" fill="white"/>
<path id="Vector_22" d="M170.39 226.741H133.082C133.005 226.741 132.932 226.68 132.878 226.573C132.824 226.465 132.794 226.32 132.794 226.168C132.794 226.016 132.824 225.87 132.878 225.763C132.932 225.656 133.005 225.595 133.082 225.595H170.39C170.467 225.595 170.54 225.656 170.594 225.763C170.648 225.87 170.678 226.016 170.678 226.168C170.678 226.32 170.648 226.465 170.594 226.573C170.54 226.68 170.467 226.741 170.39 226.741V226.741Z" fill="white"/>
<path id="Vector_23" d="M127.439 226.741H120.645C120.569 226.741 120.496 226.68 120.442 226.573C120.388 226.465 120.357 226.32 120.357 226.168C120.357 226.016 120.388 225.87 120.442 225.763C120.496 225.656 120.569 225.595 120.645 225.595H127.439C127.516 225.595 127.589 225.656 127.643 225.763C127.697 225.87 127.727 226.016 127.727 226.168C127.727 226.32 127.697 226.465 127.643 226.573C127.589 226.68 127.516 226.741 127.439 226.741V226.741Z" fill="white"/>
<path id="Vector_24" d="M170.39 245.753H133.082C133.044 245.753 133.006 245.739 132.971 245.71C132.936 245.681 132.904 245.639 132.878 245.586C132.851 245.533 132.83 245.47 132.815 245.4C132.801 245.331 132.793 245.256 132.793 245.181C132.793 245.105 132.801 245.031 132.815 244.961C132.83 244.892 132.851 244.829 132.878 244.775C132.904 244.722 132.936 244.68 132.971 244.651C133.006 244.623 133.044 244.608 133.082 244.608H170.39C170.467 244.608 170.54 244.668 170.594 244.776C170.648 244.883 170.678 245.029 170.678 245.181C170.678 245.333 170.648 245.478 170.594 245.586C170.54 245.693 170.467 245.753 170.39 245.753V245.753Z" fill="white"/>
<path id="Vector_25" d="M127.439 245.753H120.645C120.607 245.753 120.57 245.739 120.535 245.71C120.5 245.681 120.468 245.639 120.441 245.586C120.415 245.533 120.393 245.47 120.379 245.4C120.364 245.331 120.357 245.256 120.357 245.181C120.357 245.105 120.364 245.031 120.379 244.961C120.393 244.892 120.415 244.829 120.441 244.775C120.468 244.722 120.5 244.68 120.535 244.651C120.57 244.623 120.607 244.608 120.645 244.608H127.439C127.477 244.608 127.515 244.623 127.55 244.651C127.585 244.68 127.616 244.722 127.643 244.775C127.67 244.829 127.691 244.892 127.706 244.961C127.72 245.031 127.728 245.105 127.728 245.181C127.728 245.256 127.72 245.331 127.706 245.4C127.691 245.47 127.67 245.533 127.643 245.586C127.616 245.639 127.585 245.681 127.55 245.71C127.515 245.739 127.477 245.753 127.439 245.753Z" fill="white"/>
</g>
<g id="leftcode" filter="url(#filter6_d)">
<path d="M138.364 166.083L128.889 184.168L138.364 202.253L140.496 198.132L133.331 184.283L140.556 170.318L138.364 166.083Z" fill="white"/>
</g>
<g id="rightcode" filter="url(#filter7_d)">
<path d="M150.524 166.083L160 184.168L150.524 202.253L148.393 198.132L155.558 184.283L148.333 170.318L150.524 166.083Z" fill="white"/>
</g>
<g id="red" filter="url(#filter8_d)">
<path d="M99.7222 113.675C100.489 113.675 101.111 112.353 101.111 110.722C101.111 109.092 100.489 107.77 99.7222 107.77C98.9552 107.77 98.3333 109.092 98.3333 110.722C98.3333 112.353 98.9552 113.675 99.7222 113.675Z" fill="white"/>
</g>
<g id="green" filter="url(#filter9_d)">
<path d="M102.5 113.675C102.96 113.675 103.333 112.353 103.333 110.722C103.333 109.092 102.96 107.77 102.5 107.77C102.04 107.77 101.667 109.092 101.667 110.722C101.667 112.353 102.04 113.675 102.5 113.675Z" fill="white"/>
</g>
<g id="blue" filter="url(#filter10_d)">
<path d="M105.833 113.675C106.294 113.675 106.667 112.353 106.667 110.722C106.667 109.092 106.294 107.77 105.833 107.77C105.373 107.77 105 109.092 105 110.722C105 112.353 105.373 113.675 105.833 113.675Z" fill="white"/>
</g>
</g>
<defs>
<filter id="filter0_d" x="26" y="79.61" width="197" height="184.34" filterUnits="userSpaceOnUse" color-interpolation-filters="sRGB">
<feFlood flood-opacity="0" result="BackgroundImageFix"/>
<feColorMatrix in="SourceAlpha" type="matrix" values="0 0 0 0 0 0 0 0 0 0 0 0 0 0 0 0 0 0 127 0"/>
<feOffset dy="4"/>
<feGaussianBlur stdDeviation="2"/>
<feColorMatrix type="matrix" values="0 0 0 0 0 0 0 0 0 0 0 0 0 0 0 0 0 0 0.25 0"/>
<feBlend mode="normal" in2="BackgroundImageFix" result="effect1_dropShadow"/>
<feBlend mode="normal" in="SourceGraphic" in2="effect1_dropShadow" result="shape"/>
</filter>
<filter id="filter1_d" x="73.7778" y="250.971" width="137.444" height="23.5011" filterUnits="userSpaceOnUse" color-interpolation-filters="sRGB">
<feFlood flood-opacity="0" result="BackgroundImageFix"/>
<feColorMatrix in="SourceAlpha" type="matrix" values="0 0 0 0 0 0 0 0 0 0 0 0 0 0 0 0 0 0 127 0"/>
<feOffset dy="4"/>
<feGaussianBlur stdDeviation="2"/>
<feColorMatrix type="matrix" values="0 0 0 0 0 0 0 0 0 0 0 0 0 0 0 0 0 0 0.25 0"/>
<feBlend mode="normal" in2="BackgroundImageFix" result="effect1_dropShadow"/>
<feBlend mode="normal" in="SourceGraphic" in2="effect1_dropShadow" result="shape"/>
</filter>
<filter id="filter2_d" x="85.4445" y="250.971" width="117.444" height="17.596" filterUnits="userSpaceOnUse" color-interpolation-filters="sRGB">
<feFlood flood-opacity="0" result="BackgroundImageFix"/>
<feColorMatrix in="SourceAlpha" type="matrix" values="0 0 0 0 0 0 0 0 0 0 0 0 0 0 0 0 0 0 127 0"/>
<feOffset dy="4"/>
<feGaussianBlur stdDeviation="2"/>
<feColorMatrix type="matrix" values="0 0 0 0 0 0 0 0 0 0 0 0 0 0 0 0 0 0 0.25 0"/>
<feBlend mode="normal" in2="BackgroundImageFix" result="effect1_dropShadow"/>
<feBlend mode="normal" in="SourceGraphic" in2="effect1_dropShadow" result="shape"/>
</filter>
<filter id="filter3_d" x="86.3255" y="100.27" width="112.444" height="158.582" filterUnits="userSpaceOnUse" color-interpolation-filters="sRGB">
<feFlood flood-opacity="0" result="BackgroundImageFix"/>
<feColorMatrix in="SourceAlpha" type="matrix" values="0 0 0 0 0 0 0 0 0 0 0 0 0 0 0 0 0 0 127 0"/>
<feOffset dy="4"/>
<feGaussianBlur stdDeviation="2"/>
<feColorMatrix type="matrix" values="0 0 0 0 0 0 0 0 0 0 0 0 0 0 0 0 0 0 0.25 0"/>
<feBlend mode="normal" in2="BackgroundImageFix" result="effect1_dropShadow"/>
<feBlend mode="normal" in="SourceGraphic" in2="effect1_dropShadow" result="shape"/>
</filter>
<filter id="filter4_d" x="116.109" y="122.719" width="58.3209" height="34.3429" filterUnits="userSpaceOnUse" color-interpolation-filters="sRGB">
<feFlood flood-opacity="0" result="BackgroundImageFix"/>
<feColorMatrix in="SourceAlpha" type="matrix" values="0 0 0 0 0 0 0 0 0 0 0 0 0 0 0 0 0 0 127 0"/>
<feOffset dy="4"/>
<feGaussianBlur stdDeviation="2"/>
<feColorMatrix type="matrix" values="0 0 0 0 0 0 0 0 0 0 0 0 0 0 0 0 0 0 0.25 0"/>
<feBlend mode="normal" in2="BackgroundImageFix" result="effect1_dropShadow"/>
<feBlend mode="normal" in="SourceGraphic" in2="effect1_dropShadow" result="shape"/>
</filter>
<filter id="filter5_d" x="116.3" y="219.296" width="58.3785" height="34.4574" filterUnits="userSpaceOnUse" color-interpolation-filters="sRGB">
<feFlood flood-opacity="0" result="BackgroundImageFix"/>
<feColorMatrix in="SourceAlpha" type="matrix" values="0 0 0 0 0 0 0 0 0 0 0 0 0 0 0 0 0 0 127 0"/>
<feOffset dy="4"/>
<feGaussianBlur stdDeviation="2"/>
<feColorMatrix type="matrix" values="0 0 0 0 0 0 0 0 0 0 0 0 0 0 0 0 0 0 0.25 0"/>
<feBlend mode="normal" in2="BackgroundImageFix" result="effect1_dropShadow"/>
<feBlend mode="normal" in="SourceGraphic" in2="effect1_dropShadow" result="shape"/>
</filter>
<filter id="filter6_d" x="124.889" y="166.083" width="19.6667" height="44.1693" filterUnits="userSpaceOnUse" color-interpolation-filters="sRGB">
<feFlood flood-opacity="0" result="BackgroundImageFix"/>
<feColorMatrix in="SourceAlpha" type="matrix" values="0 0 0 0 0 0 0 0 0 0 0 0 0 0 0 0 0 0 127 0"/>
<feOffset dy="4"/>
<feGaussianBlur stdDeviation="2"/>
<feColorMatrix type="matrix" values="0 0 0 0 0 0 0 0 0 0 0 0 0 0 0 0 0 0 0.25 0"/>
<feBlend mode="normal" in2="BackgroundImageFix" result="effect1_dropShadow"/>
<feBlend mode="normal" in="SourceGraphic" in2="effect1_dropShadow" result="shape"/>
</filter>
<filter id="filter7_d" x="144.333" y="166.083" width="19.6667" height="44.1693" filterUnits="userSpaceOnUse" color-interpolation-filters="sRGB">
<feFlood flood-opacity="0" result="BackgroundImageFix"/>
<feColorMatrix in="SourceAlpha" type="matrix" values="0 0 0 0 0 0 0 0 0 0 0 0 0 0 0 0 0 0 127 0"/>
<feOffset dy="4"/>
<feGaussianBlur stdDeviation="2"/>
<feColorMatrix type="matrix" values="0 0 0 0 0 0 0 0 0 0 0 0 0 0 0 0 0 0 0.25 0"/>
<feBlend mode="normal" in2="BackgroundImageFix" result="effect1_dropShadow"/>
<feBlend mode="normal" in="SourceGraphic" in2="effect1_dropShadow" result="shape"/>
</filter>
<filter id="filter8_d" x="94.3333" y="107.77" width="10.7778" height="13.9052" filterUnits="userSpaceOnUse" color-interpolation-filters="sRGB">
<feFlood flood-opacity="0" result="BackgroundImageFix"/>
<feColorMatrix in="SourceAlpha" type="matrix" values="0 0 0 0 0 0 0 0 0 0 0 0 0 0 0 0 0 0 127 0"/>
<feOffset dy="4"/>
<feGaussianBlur stdDeviation="2"/>
<feColorMatrix type="matrix" values="0 0 0 0 0 0 0 0 0 0 0 0 0 0 0 0 0 0 0.25 0"/>
<feBlend mode="normal" in2="BackgroundImageFix" result="effect1_dropShadow"/>
<feBlend mode="normal" in="SourceGraphic" in2="effect1_dropShadow" result="shape"/>
</filter>
<filter id="filter9_d" x="97.6667" y="107.77" width="9.66666" height="13.9052" filterUnits="userSpaceOnUse" color-interpolation-filters="sRGB">
<feFlood flood-opacity="0" result="BackgroundImageFix"/>
<feColorMatrix in="SourceAlpha" type="matrix" values="0 0 0 0 0 0 0 0 0 0 0 0 0 0 0 0 0 0 127 0"/>
<feOffset dy="4"/>
<feGaussianBlur stdDeviation="2"/>
<feColorMatrix type="matrix" values="0 0 0 0 0 0 0 0 0 0 0 0 0 0 0 0 0 0 0.25 0"/>
<feBlend mode="normal" in2="BackgroundImageFix" result="effect1_dropShadow"/>
<feBlend mode="normal" in="SourceGraphic" in2="effect1_dropShadow" result="shape"/>
</filter>
<filter id="filter10_d" x="101" y="107.77" width="9.66668" height="13.9052" filterUnits="userSpaceOnUse" color-interpolation-filters="sRGB">
<feFlood flood-opacity="0" result="BackgroundImageFix"/>
<feColorMatrix in="SourceAlpha" type="matrix" values="0 0 0 0 0 0 0 0 0 0 0 0 0 0 0 0 0 0 127 0"/>
<feOffset dy="4"/>
<feGaussianBlur stdDeviation="2"/>
<feColorMatrix type="matrix" values="0 0 0 0 0 0 0 0 0 0 0 0 0 0 0 0 0 0 0.25 0"/>
<feBlend mode="normal" in2="BackgroundImageFix" result="effect1_dropShadow"/>
<feBlend mode="normal" in="SourceGraphic" in2="effect1_dropShadow" result="shape"/>
</filter>
<linearGradient id="paint0_linear" x1="61.2949" y1="222.018" x2="230.256" y2="107.518" gradientUnits="userSpaceOnUse">
<stop stop-color="#3D4056"/>
<stop offset="1" stop-color="white" stop-opacity="0"/>
</linearGradient>
</defs>
</svg>
